<svg width="570" height="142" viewBox="0 0 570 142" fill="none" xmlns="http://www.w3.org/2000/svg">
<path d="M16.409 89.0773L0 105.017V112.05C0 117.441 8.4389 125.411 13.596 125.411H33.0524C37.2718 125.411 45.9451 119.551 45.9451 112.753V91.6558C46.5077 82.8419 39.1471 71.7307 35.8653 66.808C29.0673 54.8529 18.2843 41.9601 16.6434 33.0524V21.8005C18.1849 18.7089 19.2219 17.5811 23.6758 17.5811C26.9576 17.5811 29.0673 18.5187 30.005 21.8005V39.616L45.9451 23.9102V14.5337C45.9451 9.14215 37.7406 2.34415 32.8179 2.34415H14.5337C6.09476 2.34415 0 11.0175 0 16.8778V33.99C0 46.414 9.61097 57.0265 13.596 62.8229C23.9102 77.8254 29.3017 86.9676 29.5362 93.0623V105.486C29.5362 108.065 26.9576 110.409 22.7381 110.409C18.9875 110.409 17.1122 109.002 16.6434 105.486L16.409 89.0773Z" fill="#F9F9F9"/>
<path fill-rule="evenodd" clip-rule="evenodd" d="M64.6982 130.408V0H95.6265C103.593 0.248396 109.685 8.69388 109.685 15.649V62.3475C109.685 71.0414 101.016 77.7481 95.6265 77.7481H80.8653V130.408H64.6982ZM144.362 0H127.961V141.586L144.362 124.447V0ZM226.837 0V130.408H265.966V114.014H243.004V71.5382H251.908L258.234 55.3924H243.004V16.3942H265.966V0H226.837ZM284.476 0V130.408H300.409V78.2449H307.907C311.268 78.3059 313.062 79.9837 313.062 82.9644V124.695L329.463 141.338V80.4805C329.463 77.2513 324.543 70.793 319.388 70.0478C324.777 69.7994 329.463 62.8443 329.463 59.6152V14.407C329.463 7.70029 320.559 2.18614e-05 314.702 0H284.476ZM341.881 75.7609V62.5959H362.031V75.7609H341.881ZM374.684 0V130.408H388.977V34.5271L400.458 130.408H413.11L425.762 34.5271L425.06 130.408H440.992V0H419.202L408.19 89.9195L396.709 0H374.684ZM471.218 0L455.051 130.408H470.046L472.624 104.823H478.95L484.339 88.9259H474.967L480.59 34.5271L489.025 130.408H506.129L489.025 0H471.218ZM519.719 130.408V0H534.949L555.099 80.7289V0H569.626V130.408H556.739L534.714 50.4245V130.408H519.719ZM162.403 0V130.408H194.269C202.918 127.697 206.179 124.776 207.39 115.504V15.649C206.493 5.74729 203.097 2.68055 193.8 0H162.403ZM178.805 114.014V16.3942V15.649H186.303C189.689 16.6799 190.966 17.8412 191.692 21.3621V109.046C190.972 112.39 189.711 113.332 186.537 114.014H178.805ZM80.6383 62.354V16.4089H88.8427C91.1869 16.6433 93.0622 18.2842 93.531 21.0972V57.9002C93.2966 60.0099 91.1869 62.354 88.8427 62.354H80.6383ZM300.518 16.4089V62.354H308.723C311.067 62.354 313.177 60.0099 313.411 57.9002V21.0972C312.942 18.2842 311.067 16.6433 308.723 16.4089H300.518Z" fill="#F9F9F9"/>
</svg>
